<mxfile host="app.diagrams.net" modified="2022-09-28T18:52:24.948Z" agent="5.0 (Windows NT 10.0; Win64; x64) AppleWebKit/537.36 (KHTML, like Gecko) Chrome/106.0.0.0 Safari/537.36" etag="2REsg8y4ayUwmNhfR_bE" version="20.3.7" type="github">
  <diagram id="x5o2052r72UH-uP_D9w9" name="Page-1">
    <mxGraphModel dx="1038" dy="1682" grid="1" gridSize="10" guides="1" tooltips="1" connect="1" arrows="1" fold="1" page="1" pageScale="1" pageWidth="827" pageHeight="1169" background="#F1FAEE" math="0" shadow="0">
      <root>
        <mxCell id="0" />
        <mxCell id="1" parent="0" />
        <mxCell id="9ZnsXwRms6pgC_prqQTW-237" value="" style="ellipse;html=1;shape=startState;fillColor=#A8DADC;strokeColor=#457B9D;fontColor=#1D3557;rounded=1;" parent="1" vertex="1">
          <mxGeometry x="384" y="-1169" width="30" height="30" as="geometry" />
        </mxCell>
        <mxCell id="9ZnsXwRms6pgC_prqQTW-238" value="" style="edgeStyle=orthogonalEdgeStyle;html=1;verticalAlign=bottom;endArrow=open;endSize=8;labelBackgroundColor=#F1FAEE;strokeColor=#457B9D;fontColor=#1D3557;rounded=1;entryX=0.463;entryY=0.006;entryDx=0;entryDy=0;entryPerimeter=0;" parent="1" source="9ZnsXwRms6pgC_prqQTW-237" target="9ZnsXwRms6pgC_prqQTW-243" edge="1">
          <mxGeometry relative="1" as="geometry">
            <mxPoint x="295" y="-1121" as="targetPoint" />
          </mxGeometry>
        </mxCell>
        <mxCell id="9ZnsXwRms6pgC_prqQTW-240" style="edgeStyle=orthogonalEdgeStyle;orthogonalLoop=1;jettySize=auto;html=1;exitX=1;exitY=0.5;exitDx=0;exitDy=0;labelBackgroundColor=#F1FAEE;strokeColor=#457B9D;fontColor=#1D3557;rounded=1;strokeWidth=2;" parent="1" source="9ZnsXwRms6pgC_prqQTW-241" edge="1">
          <mxGeometry relative="1" as="geometry">
            <mxPoint x="472" y="-961" as="targetPoint" />
            <Array as="points">
              <mxPoint x="472" y="-1017" />
            </Array>
          </mxGeometry>
        </mxCell>
        <mxCell id="9ZnsXwRms6pgC_prqQTW-241" value="sign in" style="whiteSpace=wrap;html=1;fillColor=#A8DADC;strokeColor=#457B9D;fontColor=#1D3557;rounded=1;" parent="1" vertex="1">
          <mxGeometry x="188" y="-1065" width="56" height="32" as="geometry" />
        </mxCell>
        <mxCell id="9ZnsXwRms6pgC_prqQTW-243" value="Dashboard" style="whiteSpace=wrap;html=1;fillColor=#A8DADC;strokeColor=#457B9D;fontColor=#1D3557;rounded=1;" parent="1" vertex="1">
          <mxGeometry x="348.5" y="-1131" width="101" height="32" as="geometry" />
        </mxCell>
        <mxCell id="9ZnsXwRms6pgC_prqQTW-244" value="" style="endArrow=classic;html=1;labelBackgroundColor=#F1FAEE;strokeColor=#457B9D;fontColor=#1D3557;rounded=1;exitX=0.5;exitY=1;exitDx=0;exitDy=0;" parent="1" source="9ZnsXwRms6pgC_prqQTW-243" edge="1">
          <mxGeometry width="50" height="50" relative="1" as="geometry">
            <mxPoint x="400" y="-1091" as="sourcePoint" />
            <mxPoint x="399" y="-1081" as="targetPoint" />
          </mxGeometry>
        </mxCell>
        <mxCell id="9ZnsXwRms6pgC_prqQTW-253" value="forgot password" style="whiteSpace=wrap;html=1;fillColor=#A8DADC;strokeColor=#457B9D;fontColor=#1D3557;rounded=1;" parent="1" vertex="1">
          <mxGeometry x="148" y="-1005" width="96" height="40" as="geometry" />
        </mxCell>
        <mxCell id="9ZnsXwRms6pgC_prqQTW-254" value="" style="endArrow=classic;html=1;labelBackgroundColor=#F1FAEE;strokeColor=#457B9D;fontColor=#1D3557;rounded=1;entryX=0;entryY=0.5;entryDx=0;entryDy=0;" parent="1" target="9ZnsXwRms6pgC_prqQTW-256" edge="1">
          <mxGeometry width="50" height="50" relative="1" as="geometry">
            <mxPoint x="240" y="-985" as="sourcePoint" />
            <mxPoint x="304" y="-961" as="targetPoint" />
          </mxGeometry>
        </mxCell>
        <mxCell id="9ZnsXwRms6pgC_prqQTW-255" style="edgeStyle=orthogonalEdgeStyle;orthogonalLoop=1;jettySize=auto;html=1;exitX=1;exitY=0.5;exitDx=0;exitDy=0;entryX=1;entryY=0.75;entryDx=0;entryDy=0;labelBackgroundColor=#F1FAEE;strokeColor=#457B9D;fontColor=#1D3557;rounded=1;strokeWidth=2;" parent="1" source="9ZnsXwRms6pgC_prqQTW-256" target="9ZnsXwRms6pgC_prqQTW-241" edge="1">
          <mxGeometry relative="1" as="geometry" />
        </mxCell>
        <mxCell id="9ZnsXwRms6pgC_prqQTW-256" value="change password" style="whiteSpace=wrap;html=1;fillStyle=auto;fillColor=#A8DADC;strokeColor=#457B9D;fontColor=#1D3557;rounded=1;" parent="1" vertex="1">
          <mxGeometry x="270" y="-1005" width="104" height="40" as="geometry" />
        </mxCell>
        <mxCell id="9ZnsXwRms6pgC_prqQTW-257" style="edgeStyle=orthogonalEdgeStyle;orthogonalLoop=1;jettySize=auto;html=1;entryX=0;entryY=0.75;entryDx=0;entryDy=0;labelBackgroundColor=#F1FAEE;strokeColor=#457B9D;fontColor=#1D3557;rounded=1;strokeWidth=2;" parent="1" source="9ZnsXwRms6pgC_prqQTW-258" target="9ZnsXwRms6pgC_prqQTW-241" edge="1">
          <mxGeometry relative="1" as="geometry">
            <mxPoint x="184" y="-1009" as="targetPoint" />
            <Array as="points">
              <mxPoint x="120" y="-953" />
              <mxPoint x="120" y="-1009" />
              <mxPoint x="188" y="-1009" />
            </Array>
          </mxGeometry>
        </mxCell>
        <mxCell id="9ZnsXwRms6pgC_prqQTW-258" value="" style="rhombus;whiteSpace=wrap;html=1;fillColor=#A8DADC;strokeColor=#457B9D;fontColor=#1D3557;rounded=1;" parent="1" vertex="1">
          <mxGeometry x="464" y="-961" width="16" height="16" as="geometry" />
        </mxCell>
        <mxCell id="9ZnsXwRms6pgC_prqQTW-259" value="incorrect mail or password" style="text;html=1;resizable=0;autosize=1;align=center;verticalAlign=middle;points=[];fillColor=none;strokeColor=none;fontColor=#1D3557;rounded=1;" parent="1" vertex="1">
          <mxGeometry x="254" y="-945" width="160" height="32" as="geometry" />
        </mxCell>
        <mxCell id="9ZnsXwRms6pgC_prqQTW-262" value="" style="endArrow=none;html=1;strokeWidth=4;labelBackgroundColor=#F1FAEE;strokeColor=#457B9D;fontColor=#1D3557;rounded=1;" parent="1" edge="1">
          <mxGeometry relative="1" as="geometry">
            <mxPoint x="19" y="-898" as="sourcePoint" />
            <mxPoint x="820" y="-900" as="targetPoint" />
          </mxGeometry>
        </mxCell>
        <object label="z" id="9ZnsXwRms6pgC_prqQTW-264">
          <mxCell style="swimlane;startSize=0;strokeWidth=3;fillColor=#A8DADC;strokeColor=#6C8EBF;fontColor=#1D3557;rounded=1;" parent="1" vertex="1">
            <mxGeometry x="9" y="-844" width="810" height="734" as="geometry" />
          </mxCell>
        </object>
        <mxCell id="9ZnsXwRms6pgC_prqQTW-265" value="Admin" style="text;html=1;resizable=0;autosize=1;align=center;verticalAlign=middle;points=[];fillColor=none;strokeColor=none;strokeWidth=2;shadow=0;glass=0;fontStyle=1;labelBorderColor=none;spacingTop=3;fontSize=18;fontColor=#1D3557;rounded=1;" parent="9ZnsXwRms6pgC_prqQTW-264" vertex="1">
          <mxGeometry x="342" y="-6" width="80" height="40" as="geometry" />
        </mxCell>
        <mxCell id="9ZnsXwRms6pgC_prqQTW-342" value="" style="line;strokeWidth=2;html=1;strokeColor=#6C8EBF;fillColor=#0E8088;" parent="9ZnsXwRms6pgC_prqQTW-264" vertex="1">
          <mxGeometry y="24" width="810" height="10" as="geometry" />
        </mxCell>
        <mxCell id="9ZnsXwRms6pgC_prqQTW-426" value="" style="line;strokeWidth=4;html=1;shadow=0;glass=0;labelBackgroundColor=none;labelBorderColor=none;fontFamily=Times New Roman;fontSize=18;fillColor=#A8DADC;strokeColor=#457B9D;fontColor=#1D3557;rounded=1;" parent="9ZnsXwRms6pgC_prqQTW-264" vertex="1">
          <mxGeometry x="76" y="660" width="734" height="8" as="geometry" />
        </mxCell>
        <mxCell id="9ZnsXwRms6pgC_prqQTW-469" value="Admin Home Page" style="whiteSpace=wrap;html=1;fillColor=#A8DADC;strokeColor=#457B9D;fontColor=#1D3557;rounded=1;" parent="9ZnsXwRms6pgC_prqQTW-264" vertex="1">
          <mxGeometry x="106" y="48" width="96" height="40" as="geometry" />
        </mxCell>
        <mxCell id="9ZnsXwRms6pgC_prqQTW-470" value="" style="edgeStyle=none;orthogonalLoop=1;jettySize=auto;html=1;strokeWidth=2;fontSize=19;labelBackgroundColor=#F1FAEE;strokeColor=#457B9D;fontColor=#1D3557;rounded=1;" parent="9ZnsXwRms6pgC_prqQTW-264" edge="1">
          <mxGeometry width="80" relative="1" as="geometry">
            <mxPoint x="154" y="88" as="sourcePoint" />
            <mxPoint x="154" y="112" as="targetPoint" />
            <Array as="points" />
          </mxGeometry>
        </mxCell>
        <mxCell id="9ZnsXwRms6pgC_prqQTW-471" value="" style="line;strokeWidth=4;html=1;shadow=0;glass=0;labelBackgroundColor=none;labelBorderColor=none;fontFamily=Times New Roman;fontSize=18;fillColor=#A8DADC;strokeColor=#457B9D;fontColor=#1D3557;rounded=1;" parent="9ZnsXwRms6pgC_prqQTW-264" vertex="1">
          <mxGeometry x="42" y="104" width="272" height="10" as="geometry" />
        </mxCell>
        <mxCell id="9ZnsXwRms6pgC_prqQTW-472" value="" style="edgeStyle=none;orthogonalLoop=1;jettySize=auto;html=1;strokeWidth=2;fontSize=19;exitX=0.076;exitY=0.78;exitDx=0;exitDy=0;exitPerimeter=0;labelBackgroundColor=#F1FAEE;strokeColor=#457B9D;fontColor=#1D3557;rounded=1;" parent="9ZnsXwRms6pgC_prqQTW-264" edge="1">
          <mxGeometry width="80" relative="1" as="geometry">
            <mxPoint x="66.42000000000007" y="112" as="sourcePoint" />
            <mxPoint x="66.0039999999999" y="136.20000000000005" as="targetPoint" />
            <Array as="points" />
          </mxGeometry>
        </mxCell>
        <mxCell id="9ZnsXwRms6pgC_prqQTW-473" value="" style="edgeStyle=none;orthogonalLoop=1;jettySize=auto;html=1;strokeWidth=2;fontSize=19;labelBackgroundColor=#F1FAEE;strokeColor=#457B9D;fontColor=#1D3557;rounded=1;entryX=0.505;entryY=-0.006;entryDx=0;entryDy=0;entryPerimeter=0;" parent="9ZnsXwRms6pgC_prqQTW-264" target="9ZnsXwRms6pgC_prqQTW-475" edge="1">
          <mxGeometry width="80" relative="1" as="geometry">
            <mxPoint x="306" y="104" as="sourcePoint" />
            <mxPoint x="281.99799999999993" y="972.2" as="targetPoint" />
            <Array as="points" />
          </mxGeometry>
        </mxCell>
        <mxCell id="9ZnsXwRms6pgC_prqQTW-474" value="sidebar" style="whiteSpace=wrap;html=1;fillColor=#A8DADC;strokeColor=#457B9D;fontColor=#1D3557;rounded=1;" parent="9ZnsXwRms6pgC_prqQTW-264" vertex="1">
          <mxGeometry x="34" y="136" width="64" height="32" as="geometry" />
        </mxCell>
        <mxCell id="9ZnsXwRms6pgC_prqQTW-475" value="contact infromation" style="whiteSpace=wrap;html=1;fillColor=#A8DADC;strokeColor=#457B9D;fontColor=#1D3557;rounded=1;" parent="9ZnsXwRms6pgC_prqQTW-264" vertex="1">
          <mxGeometry x="266" y="136" width="80" height="32" as="geometry" />
        </mxCell>
        <mxCell id="9ZnsXwRms6pgC_prqQTW-476" value="add subcategory" style="whiteSpace=wrap;html=1;fillColor=#A8DADC;strokeColor=#457B9D;fontColor=#1D3557;rounded=1;" parent="9ZnsXwRms6pgC_prqQTW-264" vertex="1">
          <mxGeometry x="130" y="240" width="72" height="32" as="geometry" />
        </mxCell>
        <mxCell id="9ZnsXwRms6pgC_prqQTW-477" value="" style="line;strokeWidth=4;html=1;shadow=0;glass=0;labelBackgroundColor=none;labelBorderColor=none;fontFamily=Times New Roman;fontSize=18;fillColor=#A8DADC;strokeColor=#457B9D;fontColor=#1D3557;rounded=1;" parent="9ZnsXwRms6pgC_prqQTW-264" vertex="1">
          <mxGeometry x="34" y="200" width="766" height="10" as="geometry" />
        </mxCell>
        <mxCell id="9ZnsXwRms6pgC_prqQTW-478" value="add brand" style="whiteSpace=wrap;html=1;fillColor=#A8DADC;strokeColor=#457B9D;fontColor=#1D3557;rounded=1;arcSize=19;" parent="9ZnsXwRms6pgC_prqQTW-264" vertex="1">
          <mxGeometry x="354" y="240" width="56" height="32" as="geometry" />
        </mxCell>
        <mxCell id="9ZnsXwRms6pgC_prqQTW-479" value="navbar" style="whiteSpace=wrap;html=1;fillColor=#A8DADC;strokeColor=#457B9D;fontColor=#1D3557;rounded=1;" parent="9ZnsXwRms6pgC_prqQTW-264" vertex="1">
          <mxGeometry x="114" y="136" width="56" height="32" as="geometry" />
        </mxCell>
        <mxCell id="9ZnsXwRms6pgC_prqQTW-480" value="update password" style="whiteSpace=wrap;html=1;fillStyle=auto;strokeColor=#457B9D;fontColor=#1D3557;fillColor=#A8DADC;rounded=1;" parent="9ZnsXwRms6pgC_prqQTW-264" vertex="1">
          <mxGeometry x="178" y="136" width="72" height="32" as="geometry" />
        </mxCell>
        <mxCell id="9ZnsXwRms6pgC_prqQTW-481" value="" style="edgeStyle=none;orthogonalLoop=1;jettySize=auto;html=1;strokeWidth=2;fontSize=19;exitX=0.076;exitY=0.78;exitDx=0;exitDy=0;exitPerimeter=0;labelBackgroundColor=#F1FAEE;strokeColor=#457B9D;fontColor=#1D3557;rounded=1;" parent="9ZnsXwRms6pgC_prqQTW-264" edge="1">
          <mxGeometry width="80" relative="1" as="geometry">
            <mxPoint x="130.42000000000007" y="112" as="sourcePoint" />
            <mxPoint x="130.0039999999999" y="136.20000000000005" as="targetPoint" />
            <Array as="points" />
          </mxGeometry>
        </mxCell>
        <mxCell id="9ZnsXwRms6pgC_prqQTW-482" value="" style="edgeStyle=none;orthogonalLoop=1;jettySize=auto;html=1;strokeWidth=2;fontSize=19;exitX=0.076;exitY=0.78;exitDx=0;exitDy=0;exitPerimeter=0;labelBackgroundColor=#F1FAEE;strokeColor=#457B9D;fontColor=#1D3557;rounded=1;" parent="9ZnsXwRms6pgC_prqQTW-264" edge="1">
          <mxGeometry width="80" relative="1" as="geometry">
            <mxPoint x="210" y="112" as="sourcePoint" />
            <mxPoint x="209.58399999999983" y="136.20000000000005" as="targetPoint" />
            <Array as="points" />
          </mxGeometry>
        </mxCell>
        <mxCell id="9ZnsXwRms6pgC_prqQTW-483" value="seller" style="whiteSpace=wrap;html=1;fillColor=#A8DADC;strokeColor=#457B9D;fontColor=#1D3557;rounded=1;" parent="9ZnsXwRms6pgC_prqQTW-264" vertex="1">
          <mxGeometry x="210" y="240" width="56" height="32" as="geometry" />
        </mxCell>
        <mxCell id="9ZnsXwRms6pgC_prqQTW-484" value="products" style="whiteSpace=wrap;html=1;fillColor=#A8DADC;strokeColor=#457B9D;fontColor=#1D3557;rounded=1;" parent="9ZnsXwRms6pgC_prqQTW-264" vertex="1">
          <mxGeometry x="418" y="240" width="80" height="32" as="geometry" />
        </mxCell>
        <mxCell id="9ZnsXwRms6pgC_prqQTW-485" value="" style="edgeStyle=none;orthogonalLoop=1;jettySize=auto;html=1;strokeWidth=2;fontSize=19;labelBackgroundColor=#F1FAEE;strokeColor=#457B9D;fontColor=#1D3557;rounded=1;" parent="9ZnsXwRms6pgC_prqQTW-264" edge="1">
          <mxGeometry width="80" relative="1" as="geometry">
            <mxPoint x="306.32000000000016" y="208" as="sourcePoint" />
            <mxPoint x="306" y="241" as="targetPoint" />
            <Array as="points">
              <mxPoint x="306.0000000000001" y="225" />
            </Array>
          </mxGeometry>
        </mxCell>
        <mxCell id="9ZnsXwRms6pgC_prqQTW-486" value="" style="edgeStyle=none;orthogonalLoop=1;jettySize=auto;html=1;strokeWidth=2;fontSize=19;labelBackgroundColor=#F1FAEE;strokeColor=#457B9D;fontColor=#1D3557;rounded=1;" parent="9ZnsXwRms6pgC_prqQTW-264" edge="1">
          <mxGeometry width="80" relative="1" as="geometry">
            <mxPoint x="378" y="208" as="sourcePoint" />
            <mxPoint x="377.6800000000003" y="241" as="targetPoint" />
            <Array as="points">
              <mxPoint x="377.68000000000006" y="225" />
            </Array>
          </mxGeometry>
        </mxCell>
        <mxCell id="9ZnsXwRms6pgC_prqQTW-487" value="" style="edgeStyle=none;orthogonalLoop=1;jettySize=auto;html=1;strokeWidth=2;fontSize=19;labelBackgroundColor=#F1FAEE;strokeColor=#457B9D;fontColor=#1D3557;rounded=1;" parent="9ZnsXwRms6pgC_prqQTW-264" edge="1">
          <mxGeometry width="80" relative="1" as="geometry">
            <mxPoint x="442" y="208" as="sourcePoint" />
            <mxPoint x="441.6800000000003" y="241" as="targetPoint" />
            <Array as="points">
              <mxPoint x="441.68000000000006" y="225" />
            </Array>
          </mxGeometry>
        </mxCell>
        <mxCell id="9ZnsXwRms6pgC_prqQTW-488" value="customer" style="whiteSpace=wrap;html=1;fillColor=#A8DADC;strokeColor=#457B9D;fontColor=#1D3557;rounded=1;" parent="9ZnsXwRms6pgC_prqQTW-264" vertex="1">
          <mxGeometry x="50" y="240" width="72" height="32" as="geometry" />
        </mxCell>
        <mxCell id="9ZnsXwRms6pgC_prqQTW-489" value="update personal info" style="whiteSpace=wrap;html=1;fillColor=#A8DADC;strokeColor=#457B9D;fontColor=#1D3557;rounded=1;" parent="9ZnsXwRms6pgC_prqQTW-264" vertex="1">
          <mxGeometry x="274" y="240" width="72" height="32" as="geometry" />
        </mxCell>
        <mxCell id="9ZnsXwRms6pgC_prqQTW-490" value="" style="line;strokeWidth=4;html=1;shadow=0;glass=0;labelBackgroundColor=none;labelBorderColor=none;fontFamily=Times New Roman;fontSize=18;fillColor=#A8DADC;strokeColor=#457B9D;fontColor=#1D3557;rounded=1;" parent="9ZnsXwRms6pgC_prqQTW-264" vertex="1">
          <mxGeometry x="58" y="304" width="120" height="8" as="geometry" />
        </mxCell>
        <mxCell id="9ZnsXwRms6pgC_prqQTW-491" value="" style="edgeStyle=none;orthogonalLoop=1;jettySize=auto;html=1;strokeWidth=2;fontSize=19;labelBackgroundColor=#F1FAEE;strokeColor=#457B9D;fontColor=#1D3557;rounded=1;" parent="9ZnsXwRms6pgC_prqQTW-264" edge="1">
          <mxGeometry width="80" relative="1" as="geometry">
            <mxPoint x="242" y="208" as="sourcePoint" />
            <mxPoint x="241.67999999999984" y="241" as="targetPoint" />
            <Array as="points">
              <mxPoint x="241.67999999999995" y="225" />
            </Array>
          </mxGeometry>
        </mxCell>
        <mxCell id="9ZnsXwRms6pgC_prqQTW-492" value="" style="edgeStyle=none;orthogonalLoop=1;jettySize=auto;html=1;strokeWidth=2;fontSize=19;labelBackgroundColor=#F1FAEE;strokeColor=#457B9D;fontColor=#1D3557;rounded=1;" parent="9ZnsXwRms6pgC_prqQTW-264" edge="1">
          <mxGeometry width="80" relative="1" as="geometry">
            <mxPoint x="170.32000000000016" y="208" as="sourcePoint" />
            <mxPoint x="170" y="241" as="targetPoint" />
            <Array as="points">
              <mxPoint x="170" y="225" />
            </Array>
          </mxGeometry>
        </mxCell>
        <mxCell id="9ZnsXwRms6pgC_prqQTW-493" value="" style="edgeStyle=none;orthogonalLoop=1;jettySize=auto;html=1;strokeWidth=2;fontSize=19;labelBackgroundColor=#F1FAEE;strokeColor=#457B9D;fontColor=#1D3557;rounded=1;" parent="9ZnsXwRms6pgC_prqQTW-264" edge="1">
          <mxGeometry width="80" relative="1" as="geometry">
            <mxPoint x="90.32000000000016" y="208" as="sourcePoint" />
            <mxPoint x="90" y="241" as="targetPoint" />
            <Array as="points">
              <mxPoint x="90" y="225" />
            </Array>
          </mxGeometry>
        </mxCell>
        <mxCell id="9ZnsXwRms6pgC_prqQTW-494" value="regular customer" style="whiteSpace=wrap;html=1;fillColor=#A8DADC;strokeColor=#457B9D;fontColor=#1D3557;rounded=1;" parent="9ZnsXwRms6pgC_prqQTW-264" vertex="1">
          <mxGeometry x="130" y="336" width="64" height="32" as="geometry" />
        </mxCell>
        <mxCell id="9ZnsXwRms6pgC_prqQTW-495" value="block customer list" style="whiteSpace=wrap;html=1;fillColor=#A8DADC;strokeColor=#457B9D;fontColor=#1D3557;rounded=1;" parent="9ZnsXwRms6pgC_prqQTW-264" vertex="1">
          <mxGeometry x="50" y="336" width="72" height="32" as="geometry" />
        </mxCell>
        <mxCell id="9ZnsXwRms6pgC_prqQTW-496" value="regular seller" style="whiteSpace=wrap;html=1;fillColor=#A8DADC;strokeColor=#457B9D;fontColor=#1D3557;rounded=1;" parent="9ZnsXwRms6pgC_prqQTW-264" vertex="1">
          <mxGeometry x="282" y="336" width="72" height="32" as="geometry" />
        </mxCell>
        <mxCell id="9ZnsXwRms6pgC_prqQTW-497" value="block seller list" style="whiteSpace=wrap;html=1;fillColor=#A8DADC;strokeColor=#457B9D;fontColor=#1D3557;rounded=1;" parent="9ZnsXwRms6pgC_prqQTW-264" vertex="1">
          <mxGeometry x="210" y="336" width="64" height="32" as="geometry" />
        </mxCell>
        <mxCell id="9ZnsXwRms6pgC_prqQTW-498" value="" style="line;strokeWidth=4;html=1;shadow=0;glass=0;labelBackgroundColor=none;labelBorderColor=none;fontFamily=Times New Roman;fontSize=18;fillColor=#A8DADC;strokeColor=#457B9D;fontColor=#1D3557;rounded=1;" parent="9ZnsXwRms6pgC_prqQTW-264" vertex="1">
          <mxGeometry x="218" y="304" width="120" height="8" as="geometry" />
        </mxCell>
        <mxCell id="9ZnsXwRms6pgC_prqQTW-499" value="" style="line;strokeWidth=4;html=1;shadow=0;glass=0;labelBackgroundColor=none;labelBorderColor=none;fontFamily=Times New Roman;fontSize=18;fillColor=#A8DADC;strokeColor=#457B9D;fontColor=#1D3557;rounded=1;" parent="9ZnsXwRms6pgC_prqQTW-264" vertex="1">
          <mxGeometry x="426" y="304" width="352" height="8" as="geometry" />
        </mxCell>
        <mxCell id="9ZnsXwRms6pgC_prqQTW-500" value="regular products" style="whiteSpace=wrap;html=1;fillColor=#A8DADC;strokeColor=#457B9D;fontColor=#1D3557;rounded=1;" parent="9ZnsXwRms6pgC_prqQTW-264" vertex="1">
          <mxGeometry x="482" y="336" width="72" height="32" as="geometry" />
        </mxCell>
        <mxCell id="9ZnsXwRms6pgC_prqQTW-501" value="block products list" style="whiteSpace=wrap;html=1;fillColor=#A8DADC;strokeColor=#457B9D;fontColor=#1D3557;rounded=1;" parent="9ZnsXwRms6pgC_prqQTW-264" vertex="1">
          <mxGeometry x="730" y="368" width="64" height="48" as="geometry" />
        </mxCell>
        <mxCell id="9ZnsXwRms6pgC_prqQTW-502" value="" style="edgeStyle=none;orthogonalLoop=1;jettySize=auto;html=1;strokeWidth=2;fontSize=19;labelBackgroundColor=#F1FAEE;strokeColor=#457B9D;fontColor=#1D3557;rounded=1;" parent="9ZnsXwRms6pgC_prqQTW-264" edge="1">
          <mxGeometry width="80" relative="1" as="geometry">
            <mxPoint x="82" y="272" as="sourcePoint" />
            <mxPoint x="81.67999999999984" y="305" as="targetPoint" />
            <Array as="points">
              <mxPoint x="81.67999999999984" y="289" />
            </Array>
          </mxGeometry>
        </mxCell>
        <mxCell id="9ZnsXwRms6pgC_prqQTW-503" value="" style="edgeStyle=none;orthogonalLoop=1;jettySize=auto;html=1;strokeWidth=2;fontSize=19;labelBackgroundColor=#F1FAEE;strokeColor=#457B9D;fontColor=#1D3557;rounded=1;" parent="9ZnsXwRms6pgC_prqQTW-264" edge="1">
          <mxGeometry width="80" relative="1" as="geometry">
            <mxPoint x="90" y="312" as="sourcePoint" />
            <mxPoint x="90" y="337" as="targetPoint" />
            <Array as="points">
              <mxPoint x="89.99999999999989" y="321" />
            </Array>
          </mxGeometry>
        </mxCell>
        <mxCell id="9ZnsXwRms6pgC_prqQTW-504" value="" style="edgeStyle=none;orthogonalLoop=1;jettySize=auto;html=1;strokeWidth=2;fontSize=19;labelBackgroundColor=#F1FAEE;strokeColor=#457B9D;fontColor=#1D3557;rounded=1;" parent="9ZnsXwRms6pgC_prqQTW-264" edge="1">
          <mxGeometry width="80" relative="1" as="geometry">
            <mxPoint x="154" y="312" as="sourcePoint" />
            <mxPoint x="154" y="337" as="targetPoint" />
            <Array as="points">
              <mxPoint x="153.9999999999999" y="321" />
            </Array>
          </mxGeometry>
        </mxCell>
        <mxCell id="9ZnsXwRms6pgC_prqQTW-505" value="" style="edgeStyle=none;orthogonalLoop=1;jettySize=auto;html=1;strokeWidth=2;fontSize=19;labelBackgroundColor=#F1FAEE;strokeColor=#457B9D;fontColor=#1D3557;rounded=1;" parent="9ZnsXwRms6pgC_prqQTW-264" edge="1">
          <mxGeometry width="80" relative="1" as="geometry">
            <mxPoint x="242" y="304" as="sourcePoint" />
            <mxPoint x="242" y="337" as="targetPoint" />
            <Array as="points">
              <mxPoint x="241.9999999999999" y="321" />
            </Array>
          </mxGeometry>
        </mxCell>
        <mxCell id="9ZnsXwRms6pgC_prqQTW-506" value="" style="edgeStyle=none;orthogonalLoop=1;jettySize=auto;html=1;strokeWidth=2;fontSize=19;labelBackgroundColor=#F1FAEE;strokeColor=#457B9D;fontColor=#1D3557;rounded=1;exitX=0.803;exitY=0.55;exitDx=0;exitDy=0;exitPerimeter=0;" parent="9ZnsXwRms6pgC_prqQTW-264" source="9ZnsXwRms6pgC_prqQTW-498" edge="1">
          <mxGeometry width="80" relative="1" as="geometry">
            <mxPoint x="298" y="1144" as="sourcePoint" />
            <mxPoint x="314" y="337" as="targetPoint" />
            <Array as="points">
              <mxPoint x="313.9999999999999" y="321" />
            </Array>
          </mxGeometry>
        </mxCell>
        <mxCell id="9ZnsXwRms6pgC_prqQTW-507" value="" style="edgeStyle=none;orthogonalLoop=1;jettySize=auto;html=1;strokeWidth=2;fontSize=19;labelBackgroundColor=#F1FAEE;strokeColor=#457B9D;fontColor=#1D3557;rounded=1;" parent="9ZnsXwRms6pgC_prqQTW-264" edge="1">
          <mxGeometry width="80" relative="1" as="geometry">
            <mxPoint x="242.32000000000016" y="272" as="sourcePoint" />
            <mxPoint x="242" y="305" as="targetPoint" />
            <Array as="points">
              <mxPoint x="241.9999999999999" y="289" />
            </Array>
          </mxGeometry>
        </mxCell>
        <mxCell id="9ZnsXwRms6pgC_prqQTW-508" value="" style="edgeStyle=none;orthogonalLoop=1;jettySize=auto;html=1;strokeWidth=2;fontSize=19;labelBackgroundColor=#F1FAEE;strokeColor=#457B9D;fontColor=#1D3557;rounded=1;" parent="9ZnsXwRms6pgC_prqQTW-264" edge="1">
          <mxGeometry width="80" relative="1" as="geometry">
            <mxPoint x="442" y="272" as="sourcePoint" />
            <mxPoint x="441.67999999999984" y="305" as="targetPoint" />
            <Array as="points">
              <mxPoint x="441.67999999999984" y="289" />
            </Array>
          </mxGeometry>
        </mxCell>
        <mxCell id="9ZnsXwRms6pgC_prqQTW-509" value="" style="line;strokeWidth=4;html=1;shadow=0;glass=0;labelBackgroundColor=none;labelBorderColor=none;fontFamily=Times New Roman;fontSize=18;fillColor=#A8DADC;strokeColor=#457B9D;fontColor=#1D3557;rounded=1;" parent="9ZnsXwRms6pgC_prqQTW-264" vertex="1">
          <mxGeometry x="82" y="400" width="136" height="8" as="geometry" />
        </mxCell>
        <mxCell id="9ZnsXwRms6pgC_prqQTW-510" value="add customer" style="whiteSpace=wrap;html=1;fillColor=#A8DADC;strokeColor=#457B9D;fontColor=#1D3557;rounded=1;" parent="9ZnsXwRms6pgC_prqQTW-264" vertex="1">
          <mxGeometry x="50" y="440" width="72" height="40" as="geometry" />
        </mxCell>
        <mxCell id="9ZnsXwRms6pgC_prqQTW-511" value="block customer" style="whiteSpace=wrap;html=1;fillColor=#A8DADC;strokeColor=#457B9D;fontColor=#1D3557;rounded=1;" parent="9ZnsXwRms6pgC_prqQTW-264" vertex="1">
          <mxGeometry x="130" y="440" width="56" height="40" as="geometry" />
        </mxCell>
        <mxCell id="9ZnsXwRms6pgC_prqQTW-512" value="update customer" style="whiteSpace=wrap;html=1;fillColor=#A8DADC;strokeColor=#457B9D;fontColor=#1D3557;rounded=1;" parent="9ZnsXwRms6pgC_prqQTW-264" vertex="1">
          <mxGeometry x="194" y="440" width="64" height="40" as="geometry" />
        </mxCell>
        <mxCell id="9ZnsXwRms6pgC_prqQTW-513" value="" style="edgeStyle=none;orthogonalLoop=1;jettySize=auto;html=1;strokeWidth=2;fontSize=19;labelBackgroundColor=#F1FAEE;strokeColor=#457B9D;fontColor=#1D3557;rounded=1;entryX=0.637;entryY=0.75;entryDx=0;entryDy=0;entryPerimeter=0;exitX=0.594;exitY=0.988;exitDx=0;exitDy=0;exitPerimeter=0;" parent="9ZnsXwRms6pgC_prqQTW-264" source="9ZnsXwRms6pgC_prqQTW-494" target="9ZnsXwRms6pgC_prqQTW-509" edge="1">
          <mxGeometry width="80" relative="1" as="geometry">
            <mxPoint x="90" y="1200" as="sourcePoint" />
            <mxPoint x="90" y="1232" as="targetPoint" />
            <Array as="points" />
          </mxGeometry>
        </mxCell>
        <mxCell id="9ZnsXwRms6pgC_prqQTW-514" value="" style="edgeStyle=none;orthogonalLoop=1;jettySize=auto;html=1;strokeWidth=2;fontSize=19;labelBackgroundColor=#F1FAEE;strokeColor=#457B9D;fontColor=#1D3557;rounded=1;exitX=0.05;exitY=0.25;exitDx=0;exitDy=0;exitPerimeter=0;" parent="9ZnsXwRms6pgC_prqQTW-264" source="9ZnsXwRms6pgC_prqQTW-509" edge="1">
          <mxGeometry width="80" relative="1" as="geometry">
            <mxPoint x="66" y="1264" as="sourcePoint" />
            <mxPoint x="89" y="440" as="targetPoint" />
            <Array as="points" />
          </mxGeometry>
        </mxCell>
        <mxCell id="9ZnsXwRms6pgC_prqQTW-515" value="" style="edgeStyle=none;orthogonalLoop=1;jettySize=auto;html=1;strokeWidth=2;fontSize=19;labelBackgroundColor=#F1FAEE;strokeColor=#457B9D;fontColor=#1D3557;rounded=1;entryX=0.269;entryY=-0.013;entryDx=0;entryDy=0;entryPerimeter=0;" parent="9ZnsXwRms6pgC_prqQTW-264" target="9ZnsXwRms6pgC_prqQTW-512" edge="1">
          <mxGeometry width="80" relative="1" as="geometry">
            <mxPoint x="210" y="400" as="sourcePoint" />
            <mxPoint x="199" y="1272" as="targetPoint" />
            <Array as="points" />
          </mxGeometry>
        </mxCell>
        <mxCell id="9ZnsXwRms6pgC_prqQTW-516" value="" style="line;strokeWidth=4;html=1;shadow=0;glass=0;labelBackgroundColor=none;labelBorderColor=none;fontFamily=Times New Roman;fontSize=18;fillColor=#A8DADC;strokeColor=#457B9D;fontColor=#1D3557;rounded=1;" parent="9ZnsXwRms6pgC_prqQTW-264" vertex="1">
          <mxGeometry x="306" y="400" width="152" height="8" as="geometry" />
        </mxCell>
        <mxCell id="9ZnsXwRms6pgC_prqQTW-517" value="add seller" style="whiteSpace=wrap;html=1;fillColor=#A8DADC;strokeColor=#457B9D;fontColor=#1D3557;rounded=1;" parent="9ZnsXwRms6pgC_prqQTW-264" vertex="1">
          <mxGeometry x="290" y="440" width="64" height="40" as="geometry" />
        </mxCell>
        <mxCell id="9ZnsXwRms6pgC_prqQTW-518" value="block seller" style="whiteSpace=wrap;html=1;fillColor=#A8DADC;strokeColor=#457B9D;fontColor=#1D3557;rounded=1;" parent="9ZnsXwRms6pgC_prqQTW-264" vertex="1">
          <mxGeometry x="370" y="440" width="64" height="40" as="geometry" />
        </mxCell>
        <mxCell id="9ZnsXwRms6pgC_prqQTW-519" value="update seller" style="whiteSpace=wrap;html=1;fillColor=#A8DADC;strokeColor=#457B9D;fontColor=#1D3557;rounded=1;" parent="9ZnsXwRms6pgC_prqQTW-264" vertex="1">
          <mxGeometry x="442" y="440" width="64" height="40" as="geometry" />
        </mxCell>
        <mxCell id="9ZnsXwRms6pgC_prqQTW-520" value="" style="edgeStyle=none;orthogonalLoop=1;jettySize=auto;html=1;strokeWidth=2;fontSize=19;labelBackgroundColor=#F1FAEE;strokeColor=#457B9D;fontColor=#1D3557;rounded=1;exitX=0.024;exitY=0.45;exitDx=0;exitDy=0;exitPerimeter=0;" parent="9ZnsXwRms6pgC_prqQTW-264" source="9ZnsXwRms6pgC_prqQTW-516" edge="1">
          <mxGeometry width="80" relative="1" as="geometry">
            <mxPoint x="298.78999999999996" y="1240" as="sourcePoint" />
            <mxPoint x="310" y="440" as="targetPoint" />
            <Array as="points" />
          </mxGeometry>
        </mxCell>
        <mxCell id="9ZnsXwRms6pgC_prqQTW-521" value="" style="edgeStyle=none;orthogonalLoop=1;jettySize=auto;html=1;strokeWidth=2;fontSize=19;labelBackgroundColor=#F1FAEE;strokeColor=#457B9D;fontColor=#1D3557;rounded=1;" parent="9ZnsXwRms6pgC_prqQTW-264" edge="1">
          <mxGeometry width="80" relative="1" as="geometry">
            <mxPoint x="394" y="400" as="sourcePoint" />
            <mxPoint x="394" y="440" as="targetPoint" />
            <Array as="points" />
          </mxGeometry>
        </mxCell>
        <mxCell id="9ZnsXwRms6pgC_prqQTW-522" value="" style="edgeStyle=none;orthogonalLoop=1;jettySize=auto;html=1;strokeWidth=2;fontSize=19;labelBackgroundColor=#F1FAEE;strokeColor=#457B9D;fontColor=#1D3557;rounded=1;exitX=0.189;exitY=0.45;exitDx=0;exitDy=0;exitPerimeter=0;entryX=0.406;entryY=0.013;entryDx=0;entryDy=0;entryPerimeter=0;" parent="9ZnsXwRms6pgC_prqQTW-264" edge="1">
          <mxGeometry width="80" relative="1" as="geometry">
            <mxPoint x="450.78999999999996" y="400" as="sourcePoint" />
            <mxPoint x="449.9979999999996" y="436.8159999999998" as="targetPoint" />
            <Array as="points" />
          </mxGeometry>
        </mxCell>
        <mxCell id="9ZnsXwRms6pgC_prqQTW-523" value="" style="edgeStyle=none;orthogonalLoop=1;jettySize=auto;html=1;strokeWidth=2;fontSize=19;labelBackgroundColor=#F1FAEE;strokeColor=#457B9D;fontColor=#1D3557;rounded=1;exitX=0.189;exitY=0.45;exitDx=0;exitDy=0;exitPerimeter=0;entryX=0.406;entryY=0.013;entryDx=0;entryDy=0;entryPerimeter=0;" parent="9ZnsXwRms6pgC_prqQTW-264" edge="1">
          <mxGeometry width="80" relative="1" as="geometry">
            <mxPoint x="522.79" y="304" as="sourcePoint" />
            <mxPoint x="521.9979999999996" y="340.8159999999998" as="targetPoint" />
            <Array as="points" />
          </mxGeometry>
        </mxCell>
        <mxCell id="9ZnsXwRms6pgC_prqQTW-524" value="" style="edgeStyle=none;orthogonalLoop=1;jettySize=auto;html=1;strokeWidth=2;fontSize=19;labelBackgroundColor=#F1FAEE;strokeColor=#457B9D;fontColor=#1D3557;rounded=1;entryX=0.406;entryY=0.013;entryDx=0;entryDy=0;entryPerimeter=0;" parent="9ZnsXwRms6pgC_prqQTW-264" edge="1">
          <mxGeometry width="80" relative="1" as="geometry">
            <mxPoint x="162" y="400" as="sourcePoint" />
            <mxPoint x="161.20799999999986" y="444.8159999999998" as="targetPoint" />
            <Array as="points" />
          </mxGeometry>
        </mxCell>
        <mxCell id="9ZnsXwRms6pgC_prqQTW-525" value="unblock seller" style="whiteSpace=wrap;html=1;fillColor=#A8DADC;strokeColor=#457B9D;fontColor=#1D3557;rounded=1;" parent="9ZnsXwRms6pgC_prqQTW-264" vertex="1">
          <mxGeometry x="250" y="536" width="64" height="40" as="geometry" />
        </mxCell>
        <mxCell id="9ZnsXwRms6pgC_prqQTW-526" value="unblock product" style="whiteSpace=wrap;html=1;fillColor=#A8DADC;strokeColor=#457B9D;fontColor=#1D3557;rounded=1;" parent="9ZnsXwRms6pgC_prqQTW-264" vertex="1">
          <mxGeometry x="730" y="536" width="72" height="40" as="geometry" />
        </mxCell>
        <mxCell id="9ZnsXwRms6pgC_prqQTW-527" value="unblock customer" style="whiteSpace=wrap;html=1;fillColor=#A8DADC;strokeColor=#457B9D;fontColor=#1D3557;rounded=1;" parent="9ZnsXwRms6pgC_prqQTW-264" vertex="1">
          <mxGeometry x="122" y="536" width="72" height="40" as="geometry" />
        </mxCell>
        <mxCell id="9ZnsXwRms6pgC_prqQTW-528" value="" style="line;strokeWidth=4;html=1;shadow=0;glass=0;labelBackgroundColor=none;labelBorderColor=none;fontFamily=Times New Roman;fontSize=18;fillColor=#A8DADC;strokeColor=#457B9D;fontColor=#1D3557;rounded=1;" parent="9ZnsXwRms6pgC_prqQTW-264" vertex="1">
          <mxGeometry x="122" y="512" width="64" height="8" as="geometry" />
        </mxCell>
        <mxCell id="9ZnsXwRms6pgC_prqQTW-529" value="" style="line;strokeWidth=4;html=1;shadow=0;glass=0;labelBackgroundColor=none;labelBorderColor=none;fontFamily=Times New Roman;fontSize=18;fillColor=#A8DADC;strokeColor=#457B9D;fontColor=#1D3557;rounded=1;" parent="9ZnsXwRms6pgC_prqQTW-264" vertex="1">
          <mxGeometry x="250" y="504" width="48" height="16" as="geometry" />
        </mxCell>
        <mxCell id="9ZnsXwRms6pgC_prqQTW-530" value="" style="line;strokeWidth=4;html=1;shadow=0;glass=0;labelBackgroundColor=none;labelBorderColor=none;fontFamily=Times New Roman;fontSize=18;fillColor=#A8DADC;strokeColor=#457B9D;fontColor=#1D3557;rounded=1;" parent="9ZnsXwRms6pgC_prqQTW-264" vertex="1">
          <mxGeometry x="738" y="504" width="56" height="8" as="geometry" />
        </mxCell>
        <mxCell id="9ZnsXwRms6pgC_prqQTW-531" value="" style="edgeStyle=none;orthogonalLoop=1;jettySize=auto;html=1;strokeWidth=2;fontSize=19;labelBackgroundColor=#F1FAEE;strokeColor=#457B9D;fontColor=#1D3557;rounded=1;exitX=-0.006;exitY=0.513;exitDx=0;exitDy=0;exitPerimeter=0;" parent="9ZnsXwRms6pgC_prqQTW-264" source="9ZnsXwRms6pgC_prqQTW-495" target="9ZnsXwRms6pgC_prqQTW-528" edge="1">
          <mxGeometry width="80" relative="1" as="geometry">
            <mxPoint x="26" y="1184" as="sourcePoint" />
            <mxPoint x="50.200000000000045" y="1414" as="targetPoint" />
            <Array as="points">
              <mxPoint x="34" y="352" />
              <mxPoint x="34" y="496" />
              <mxPoint x="154" y="496" />
            </Array>
          </mxGeometry>
        </mxCell>
        <mxCell id="9ZnsXwRms6pgC_prqQTW-532" value="" style="edgeStyle=none;orthogonalLoop=1;jettySize=auto;html=1;strokeWidth=2;fontSize=19;labelBackgroundColor=#F1FAEE;strokeColor=#457B9D;fontColor=#1D3557;rounded=1;exitX=0.931;exitY=1.013;exitDx=0;exitDy=0;exitPerimeter=0;" parent="9ZnsXwRms6pgC_prqQTW-264" source="9ZnsXwRms6pgC_prqQTW-497" edge="1">
          <mxGeometry width="80" relative="1" as="geometry">
            <mxPoint x="258" y="1304" as="sourcePoint" />
            <mxPoint x="270" y="512" as="targetPoint" />
            <Array as="points" />
          </mxGeometry>
        </mxCell>
        <mxCell id="9ZnsXwRms6pgC_prqQTW-533" value="" style="edgeStyle=none;orthogonalLoop=1;jettySize=auto;html=1;strokeWidth=2;fontSize=19;labelBackgroundColor=#F1FAEE;strokeColor=#457B9D;fontColor=#1D3557;rounded=1;" parent="9ZnsXwRms6pgC_prqQTW-264" edge="1">
          <mxGeometry width="80" relative="1" as="geometry">
            <mxPoint x="154" y="520" as="sourcePoint" />
            <mxPoint x="154" y="536" as="targetPoint" />
            <Array as="points">
              <mxPoint x="153.9999999999999" y="529" />
            </Array>
          </mxGeometry>
        </mxCell>
        <mxCell id="9ZnsXwRms6pgC_prqQTW-534" value="" style="edgeStyle=none;orthogonalLoop=1;jettySize=auto;html=1;strokeWidth=2;fontSize=19;labelBackgroundColor=#F1FAEE;strokeColor=#457B9D;fontColor=#1D3557;rounded=1;exitX=0.364;exitY=0.65;exitDx=0;exitDy=0;exitPerimeter=0;entryX=0.394;entryY=0.05;entryDx=0;entryDy=0;entryPerimeter=0;" parent="9ZnsXwRms6pgC_prqQTW-264" source="9ZnsXwRms6pgC_prqQTW-530" target="9ZnsXwRms6pgC_prqQTW-526" edge="1">
          <mxGeometry width="80" relative="1" as="geometry">
            <mxPoint x="578" y="1360" as="sourcePoint" />
            <mxPoint x="574" y="1376" as="targetPoint" />
            <Array as="points" />
          </mxGeometry>
        </mxCell>
        <mxCell id="9ZnsXwRms6pgC_prqQTW-535" value="" style="edgeStyle=none;orthogonalLoop=1;jettySize=auto;html=1;strokeWidth=2;fontSize=19;labelBackgroundColor=#F1FAEE;strokeColor=#457B9D;fontColor=#1D3557;rounded=1;entryX=0.35;entryY=0.35;entryDx=0;entryDy=0;entryPerimeter=0;exitX=0.431;exitY=1;exitDx=0;exitDy=0;exitPerimeter=0;" parent="9ZnsXwRms6pgC_prqQTW-264" source="9ZnsXwRms6pgC_prqQTW-501" target="9ZnsXwRms6pgC_prqQTW-530" edge="1">
          <mxGeometry width="80" relative="1" as="geometry">
            <mxPoint x="742" y="1256" as="sourcePoint" />
            <mxPoint x="674" y="1328" as="targetPoint" />
            <Array as="points" />
          </mxGeometry>
        </mxCell>
        <mxCell id="9ZnsXwRms6pgC_prqQTW-536" value="customer view" style="whiteSpace=wrap;html=1;fillColor=#A8DADC;strokeColor=#457B9D;fontColor=#1D3557;rounded=1;" parent="9ZnsXwRms6pgC_prqQTW-264" vertex="1">
          <mxGeometry x="514" y="240" width="80" height="32" as="geometry" />
        </mxCell>
        <mxCell id="9ZnsXwRms6pgC_prqQTW-537" value="" style="edgeStyle=none;orthogonalLoop=1;jettySize=auto;html=1;strokeWidth=2;fontSize=19;labelBackgroundColor=#F1FAEE;strokeColor=#457B9D;fontColor=#1D3557;rounded=1;entryX=0.244;entryY=0.025;entryDx=0;entryDy=0;entryPerimeter=0;" parent="9ZnsXwRms6pgC_prqQTW-264" target="9ZnsXwRms6pgC_prqQTW-501" edge="1">
          <mxGeometry width="80" relative="1" as="geometry">
            <mxPoint x="746" y="304" as="sourcePoint" />
            <mxPoint x="641.9979999999996" y="1172.8159999999998" as="targetPoint" />
            <Array as="points" />
          </mxGeometry>
        </mxCell>
        <mxCell id="9ZnsXwRms6pgC_prqQTW-538" value="" style="line;strokeWidth=4;html=1;shadow=0;glass=0;labelBackgroundColor=none;labelBorderColor=none;fontFamily=Times New Roman;fontSize=18;fillColor=#A8DADC;strokeColor=#457B9D;fontColor=#1D3557;rounded=1;" parent="9ZnsXwRms6pgC_prqQTW-264" vertex="1">
          <mxGeometry x="498" y="400" width="192" height="8" as="geometry" />
        </mxCell>
        <mxCell id="9ZnsXwRms6pgC_prqQTW-539" value="add seller" style="whiteSpace=wrap;html=1;fillColor=#A8DADC;strokeColor=#457B9D;fontColor=#1D3557;rounded=1;" parent="9ZnsXwRms6pgC_prqQTW-264" vertex="1">
          <mxGeometry x="514" y="440" width="64" height="40" as="geometry" />
        </mxCell>
        <mxCell id="9ZnsXwRms6pgC_prqQTW-540" value="block seller" style="whiteSpace=wrap;html=1;fillColor=#A8DADC;strokeColor=#457B9D;fontColor=#1D3557;rounded=1;" parent="9ZnsXwRms6pgC_prqQTW-264" vertex="1">
          <mxGeometry x="586" y="440" width="64" height="40" as="geometry" />
        </mxCell>
        <mxCell id="9ZnsXwRms6pgC_prqQTW-541" value="update seller" style="whiteSpace=wrap;html=1;fillColor=#A8DADC;strokeColor=#457B9D;fontColor=#1D3557;rounded=1;" parent="9ZnsXwRms6pgC_prqQTW-264" vertex="1">
          <mxGeometry x="658" y="440" width="64" height="40" as="geometry" />
        </mxCell>
        <mxCell id="9ZnsXwRms6pgC_prqQTW-542" value="" style="edgeStyle=none;orthogonalLoop=1;jettySize=auto;html=1;strokeWidth=2;fontSize=19;labelBackgroundColor=#F1FAEE;strokeColor=#457B9D;fontColor=#1D3557;rounded=1;exitX=0.252;exitY=0.25;exitDx=0;exitDy=0;exitPerimeter=0;" parent="9ZnsXwRms6pgC_prqQTW-264" source="9ZnsXwRms6pgC_prqQTW-538" edge="1">
          <mxGeometry width="80" relative="1" as="geometry">
            <mxPoint x="530" y="1240" as="sourcePoint" />
            <mxPoint x="546" y="440" as="targetPoint" />
            <Array as="points" />
          </mxGeometry>
        </mxCell>
        <mxCell id="9ZnsXwRms6pgC_prqQTW-543" value="" style="edgeStyle=none;orthogonalLoop=1;jettySize=auto;html=1;strokeWidth=2;fontSize=19;labelBackgroundColor=#F1FAEE;strokeColor=#457B9D;fontColor=#1D3557;rounded=1;exitX=0.024;exitY=0.45;exitDx=0;exitDy=0;exitPerimeter=0;" parent="9ZnsXwRms6pgC_prqQTW-264" edge="1">
          <mxGeometry width="80" relative="1" as="geometry">
            <mxPoint x="618" y="400" as="sourcePoint" />
            <mxPoint x="618.3519999999999" y="436.4000000000001" as="targetPoint" />
            <Array as="points" />
          </mxGeometry>
        </mxCell>
        <mxCell id="9ZnsXwRms6pgC_prqQTW-544" value="" style="edgeStyle=none;orthogonalLoop=1;jettySize=auto;html=1;strokeWidth=2;fontSize=19;labelBackgroundColor=#F1FAEE;strokeColor=#457B9D;fontColor=#1D3557;rounded=1;exitX=0.94;exitY=0.55;exitDx=0;exitDy=0;exitPerimeter=0;entryX=0.344;entryY=-0.05;entryDx=0;entryDy=0;entryPerimeter=0;" parent="9ZnsXwRms6pgC_prqQTW-264" source="9ZnsXwRms6pgC_prqQTW-538" target="9ZnsXwRms6pgC_prqQTW-541" edge="1">
          <mxGeometry width="80" relative="1" as="geometry">
            <mxPoint x="650" y="1248" as="sourcePoint" />
            <mxPoint x="662" y="1264" as="targetPoint" />
            <Array as="points" />
          </mxGeometry>
        </mxCell>
        <mxCell id="9ZnsXwRms6pgC_prqQTW-545" value="" style="edgeStyle=none;orthogonalLoop=1;jettySize=auto;html=1;strokeWidth=2;fontSize=19;labelBackgroundColor=#F1FAEE;strokeColor=#457B9D;fontColor=#1D3557;rounded=1;entryX=0.637;entryY=0.75;entryDx=0;entryDy=0;entryPerimeter=0;exitX=0.594;exitY=0.988;exitDx=0;exitDy=0;exitPerimeter=0;" parent="9ZnsXwRms6pgC_prqQTW-264" edge="1">
          <mxGeometry width="80" relative="1" as="geometry">
            <mxPoint x="338" y="368" as="sourcePoint" />
            <mxPoint x="338.616" y="406.384" as="targetPoint" />
            <Array as="points" />
          </mxGeometry>
        </mxCell>
        <mxCell id="9ZnsXwRms6pgC_prqQTW-546" value="" style="edgeStyle=none;orthogonalLoop=1;jettySize=auto;html=1;strokeWidth=2;fontSize=19;labelBackgroundColor=#F1FAEE;strokeColor=#457B9D;fontColor=#1D3557;rounded=1;entryX=0.637;entryY=0.75;entryDx=0;entryDy=0;entryPerimeter=0;exitX=0.594;exitY=0.988;exitDx=0;exitDy=0;exitPerimeter=0;" parent="9ZnsXwRms6pgC_prqQTW-264" edge="1">
          <mxGeometry width="80" relative="1" as="geometry">
            <mxPoint x="538" y="368" as="sourcePoint" />
            <mxPoint x="538.616" y="406.384" as="targetPoint" />
            <Array as="points" />
          </mxGeometry>
        </mxCell>
        <mxCell id="9ZnsXwRms6pgC_prqQTW-547" value="products approval" style="whiteSpace=wrap;html=1;fillColor=#A8DADC;strokeColor=#457B9D;fontColor=#1D3557;rounded=1;" parent="9ZnsXwRms6pgC_prqQTW-264" vertex="1">
          <mxGeometry x="614" y="242" width="80" height="32" as="geometry" />
        </mxCell>
        <mxCell id="9ZnsXwRms6pgC_prqQTW-548" value="seller approval" style="whiteSpace=wrap;html=1;fillColor=#A8DADC;strokeColor=#457B9D;fontColor=#1D3557;rounded=1;" parent="9ZnsXwRms6pgC_prqQTW-264" vertex="1">
          <mxGeometry x="714" y="240" width="80" height="32" as="geometry" />
        </mxCell>
        <mxCell id="9ZnsXwRms6pgC_prqQTW-551" value="" style="edgeStyle=none;orthogonalLoop=1;jettySize=auto;html=1;strokeWidth=2;fontSize=19;labelBackgroundColor=#F1FAEE;strokeColor=#457B9D;fontColor=#1D3557;rounded=1;entryX=0.371;entryY=0;entryDx=0;entryDy=0;entryPerimeter=0;" parent="9ZnsXwRms6pgC_prqQTW-264" target="9ZnsXwRms6pgC_prqQTW-547" edge="1">
          <mxGeometry width="80" relative="1" as="geometry">
            <mxPoint x="644" y="202" as="sourcePoint" />
            <mxPoint x="914.0159999999996" y="1322.8" as="targetPoint" />
            <Array as="points" />
          </mxGeometry>
        </mxCell>
        <mxCell id="9ZnsXwRms6pgC_prqQTW-552" value="" style="edgeStyle=none;orthogonalLoop=1;jettySize=auto;html=1;strokeWidth=2;fontSize=19;labelBackgroundColor=#F1FAEE;strokeColor=#457B9D;fontColor=#1D3557;rounded=1;entryX=0.5;entryY=0;entryDx=0;entryDy=0;" parent="9ZnsXwRms6pgC_prqQTW-264" target="9ZnsXwRms6pgC_prqQTW-548" edge="1">
          <mxGeometry width="80" relative="1" as="geometry">
            <mxPoint x="754" y="205" as="sourcePoint" />
            <mxPoint x="931.2639999999997" y="616" as="targetPoint" />
            <Array as="points" />
          </mxGeometry>
        </mxCell>
        <mxCell id="9ZnsXwRms6pgC_prqQTW-555" value="&lt;b&gt;rejected&lt;/b&gt;" style="text;html=1;align=center;verticalAlign=middle;resizable=0;points=[];autosize=1;strokeColor=none;fillColor=none;" parent="9ZnsXwRms6pgC_prqQTW-264" vertex="1">
          <mxGeometry x="474" y="520" width="64" height="32" as="geometry" />
        </mxCell>
        <mxCell id="9ZnsXwRms6pgC_prqQTW-556" value="&lt;b&gt;accepted&lt;/b&gt;" style="text;html=1;align=center;verticalAlign=middle;resizable=0;points=[];autosize=1;strokeColor=none;fillColor=none;" parent="9ZnsXwRms6pgC_prqQTW-264" vertex="1">
          <mxGeometry x="402" y="584" width="72" height="32" as="geometry" />
        </mxCell>
        <mxCell id="9ZnsXwRms6pgC_prqQTW-561" value="" style="edgeStyle=none;orthogonalLoop=1;jettySize=auto;html=1;strokeWidth=2;fontSize=19;labelBackgroundColor=#F1FAEE;strokeColor=#457B9D;fontColor=#1D3557;rounded=1;" parent="9ZnsXwRms6pgC_prqQTW-264" edge="1">
          <mxGeometry width="80" relative="1" as="geometry">
            <mxPoint x="764" y="582" as="sourcePoint" />
            <mxPoint x="764" y="662" as="targetPoint" />
            <Array as="points" />
          </mxGeometry>
        </mxCell>
        <mxCell id="9ZnsXwRms6pgC_prqQTW-562" value="" style="edgeStyle=none;orthogonalLoop=1;jettySize=auto;html=1;strokeWidth=2;fontSize=19;labelBackgroundColor=#F1FAEE;strokeColor=#457B9D;fontColor=#1D3557;rounded=1;entryX=-0.017;entryY=0.392;entryDx=0;entryDy=0;entryPerimeter=0;" parent="9ZnsXwRms6pgC_prqQTW-264" source="9ZnsXwRms6pgC_prqQTW-518" edge="1">
          <mxGeometry width="80" relative="1" as="geometry">
            <mxPoint x="370" y="1344" as="sourcePoint" />
            <mxPoint x="400.77600000000007" y="660.5440000000001" as="targetPoint" />
            <Array as="points" />
          </mxGeometry>
        </mxCell>
        <mxCell id="9ZnsXwRms6pgC_prqQTW-563" value="" style="edgeStyle=none;orthogonalLoop=1;jettySize=auto;html=1;strokeWidth=2;fontSize=19;labelBackgroundColor=#F1FAEE;strokeColor=#457B9D;fontColor=#1D3557;rounded=1;" parent="9ZnsXwRms6pgC_prqQTW-264" edge="1">
          <mxGeometry width="80" relative="1" as="geometry">
            <mxPoint x="467.5799999999999" y="480" as="sourcePoint" />
            <mxPoint x="466" y="662" as="targetPoint" />
            <Array as="points" />
          </mxGeometry>
        </mxCell>
        <mxCell id="9ZnsXwRms6pgC_prqQTW-564" value="" style="edgeStyle=none;orthogonalLoop=1;jettySize=auto;html=1;strokeWidth=2;fontSize=19;labelBackgroundColor=#F1FAEE;strokeColor=#457B9D;fontColor=#1D3557;rounded=1;" parent="9ZnsXwRms6pgC_prqQTW-264" edge="1">
          <mxGeometry width="80" relative="1" as="geometry">
            <mxPoint x="546" y="480" as="sourcePoint" />
            <mxPoint x="546" y="662" as="targetPoint" />
            <Array as="points" />
          </mxGeometry>
        </mxCell>
        <mxCell id="9ZnsXwRms6pgC_prqQTW-565" value="" style="edgeStyle=none;orthogonalLoop=1;jettySize=auto;html=1;strokeWidth=2;fontSize=19;labelBackgroundColor=#F1FAEE;strokeColor=#457B9D;fontColor=#1D3557;rounded=1;entryX=0.723;entryY=0.458;entryDx=0;entryDy=0;entryPerimeter=0;" parent="9ZnsXwRms6pgC_prqQTW-264" target="9ZnsXwRms6pgC_prqQTW-426" edge="1">
          <mxGeometry width="80" relative="1" as="geometry">
            <mxPoint x="610" y="480" as="sourcePoint" />
            <mxPoint x="608.4163178807948" y="762" as="targetPoint" />
            <Array as="points" />
          </mxGeometry>
        </mxCell>
        <mxCell id="9ZnsXwRms6pgC_prqQTW-566" value="" style="edgeStyle=none;orthogonalLoop=1;jettySize=auto;html=1;strokeWidth=2;fontSize=19;labelBackgroundColor=#F1FAEE;strokeColor=#457B9D;fontColor=#1D3557;rounded=1;" parent="9ZnsXwRms6pgC_prqQTW-264" edge="1">
          <mxGeometry width="80" relative="1" as="geometry">
            <mxPoint x="683.5799999999999" y="480" as="sourcePoint" />
            <mxPoint x="682" y="662" as="targetPoint" />
            <Array as="points" />
          </mxGeometry>
        </mxCell>
        <mxCell id="9ZnsXwRms6pgC_prqQTW-567" value="" style="edgeStyle=none;orthogonalLoop=1;jettySize=auto;html=1;strokeWidth=2;fontSize=19;labelBackgroundColor=#F1FAEE;strokeColor=#457B9D;fontColor=#1D3557;rounded=1;" parent="9ZnsXwRms6pgC_prqQTW-264" edge="1">
          <mxGeometry width="80" relative="1" as="geometry">
            <mxPoint x="331.5799999999999" y="480" as="sourcePoint" />
            <mxPoint x="330" y="662" as="targetPoint" />
            <Array as="points" />
          </mxGeometry>
        </mxCell>
        <mxCell id="9ZnsXwRms6pgC_prqQTW-568" value="" style="edgeStyle=none;orthogonalLoop=1;jettySize=auto;html=1;strokeWidth=2;fontSize=19;labelBackgroundColor=#F1FAEE;strokeColor=#457B9D;fontColor=#1D3557;rounded=1;entryX=0.181;entryY=0.236;entryDx=0;entryDy=0;entryPerimeter=0;" parent="9ZnsXwRms6pgC_prqQTW-264" target="9ZnsXwRms6pgC_prqQTW-426" edge="1">
          <mxGeometry width="80" relative="1" as="geometry">
            <mxPoint x="208" y="482" as="sourcePoint" />
            <mxPoint x="208.41631788079476" y="680" as="targetPoint" />
            <Array as="points" />
          </mxGeometry>
        </mxCell>
        <mxCell id="9ZnsXwRms6pgC_prqQTW-569" value="" style="edgeStyle=none;orthogonalLoop=1;jettySize=auto;html=1;strokeWidth=2;fontSize=19;labelBackgroundColor=#F1FAEE;strokeColor=#457B9D;fontColor=#1D3557;rounded=1;" parent="9ZnsXwRms6pgC_prqQTW-264" edge="1">
          <mxGeometry width="80" relative="1" as="geometry">
            <mxPoint x="91.57999999999993" y="480" as="sourcePoint" />
            <mxPoint x="90" y="662" as="targetPoint" />
            <Array as="points" />
          </mxGeometry>
        </mxCell>
        <mxCell id="9ZnsXwRms6pgC_prqQTW-570" value="" style="edgeStyle=none;orthogonalLoop=1;jettySize=auto;html=1;strokeWidth=2;fontSize=19;labelBackgroundColor=#F1FAEE;strokeColor=#457B9D;fontColor=#1D3557;rounded=1;" parent="9ZnsXwRms6pgC_prqQTW-264" edge="1">
          <mxGeometry width="80" relative="1" as="geometry">
            <mxPoint x="162" y="576" as="sourcePoint" />
            <mxPoint x="162" y="662" as="targetPoint" />
            <Array as="points" />
          </mxGeometry>
        </mxCell>
        <mxCell id="9ZnsXwRms6pgC_prqQTW-571" value="" style="edgeStyle=none;orthogonalLoop=1;jettySize=auto;html=1;strokeWidth=2;fontSize=19;labelBackgroundColor=#F1FAEE;strokeColor=#457B9D;fontColor=#1D3557;rounded=1;" parent="9ZnsXwRms6pgC_prqQTW-264" edge="1">
          <mxGeometry width="80" relative="1" as="geometry">
            <mxPoint x="283.5799999999999" y="576" as="sourcePoint" />
            <mxPoint x="282" y="662" as="targetPoint" />
            <Array as="points" />
          </mxGeometry>
        </mxCell>
        <mxCell id="9ZnsXwRms6pgC_prqQTW-574" value="" style="edgeStyle=none;orthogonalLoop=1;jettySize=auto;html=1;strokeWidth=2;fontSize=19;exitX=0.465;exitY=0.994;exitDx=0;exitDy=0;exitPerimeter=0;entryX=0.287;entryY=0.46;entryDx=0;entryDy=0;entryPerimeter=0;labelBackgroundColor=#F1FAEE;strokeColor=#457B9D;fontColor=#1D3557;rounded=1;" parent="9ZnsXwRms6pgC_prqQTW-264" edge="1">
          <mxGeometry width="80" relative="1" as="geometry">
            <mxPoint x="58" y="168" as="sourcePoint" />
            <mxPoint x="58.72000000000003" y="204.79199999999992" as="targetPoint" />
            <Array as="points" />
          </mxGeometry>
        </mxCell>
        <mxCell id="9ZnsXwRms6pgC_prqQTW-575" value="" style="edgeStyle=none;orthogonalLoop=1;jettySize=auto;html=1;strokeWidth=2;fontSize=19;labelBackgroundColor=#F1FAEE;strokeColor=#457B9D;fontColor=#1D3557;rounded=1;exitX=0.475;exitY=0.375;exitDx=0;exitDy=0;exitPerimeter=0;" parent="9ZnsXwRms6pgC_prqQTW-264" source="9ZnsXwRms6pgC_prqQTW-529" edge="1">
          <mxGeometry width="80" relative="1" as="geometry">
            <mxPoint x="274" y="520" as="sourcePoint" />
            <mxPoint x="274" y="536" as="targetPoint" />
            <Array as="points">
              <mxPoint x="273.9999999999999" y="529" />
            </Array>
          </mxGeometry>
        </mxCell>
        <mxCell id="9ZnsXwRms6pgC_prqQTW-576" value="" style="edgeStyle=none;orthogonalLoop=1;jettySize=auto;html=1;strokeWidth=2;fontSize=19;labelBackgroundColor=#F1FAEE;strokeColor=#457B9D;fontColor=#1D3557;rounded=1;" parent="9ZnsXwRms6pgC_prqQTW-264" edge="1">
          <mxGeometry width="80" relative="1" as="geometry">
            <mxPoint x="554" y="200" as="sourcePoint" />
            <mxPoint x="554" y="240" as="targetPoint" />
            <Array as="points">
              <mxPoint x="553.6800000000001" y="233" />
            </Array>
          </mxGeometry>
        </mxCell>
        <mxCell id="9ZnsXwRms6pgC_prqQTW-270" value="" style="edgeStyle=none;orthogonalLoop=1;jettySize=auto;html=1;strokeWidth=2;fontSize=19;labelBackgroundColor=#F1FAEE;strokeColor=#457B9D;fontColor=#1D3557;rounded=1;" parent="9ZnsXwRms6pgC_prqQTW-264" edge="1">
          <mxGeometry width="80" relative="1" as="geometry">
            <mxPoint x="157" y="-56" as="sourcePoint" />
            <mxPoint x="157.44" y="48" as="targetPoint" />
            <Array as="points" />
          </mxGeometry>
        </mxCell>
        <mxCell id="9ZnsXwRms6pgC_prqQTW-703" value="" style="ellipse;html=1;shape=endState;fillColor=#6C8EBF;strokeColor=#6C8EBF;" parent="9ZnsXwRms6pgC_prqQTW-264" vertex="1">
          <mxGeometry x="462" y="702" width="24" height="24" as="geometry" />
        </mxCell>
        <mxCell id="Qo0M1kcbLLL2sJfZECa7-1" value="" style="edgeStyle=none;orthogonalLoop=1;jettySize=auto;html=1;strokeWidth=2;fontSize=19;labelBackgroundColor=#F1FAEE;strokeColor=#457B9D;fontColor=#1D3557;rounded=1;entryX=0.5;entryY=0;entryDx=0;entryDy=0;" edge="1" parent="9ZnsXwRms6pgC_prqQTW-264" target="9ZnsXwRms6pgC_prqQTW-703">
          <mxGeometry width="80" relative="1" as="geometry">
            <mxPoint x="474" y="664" as="sourcePoint" />
            <mxPoint x="460.7931034483113" y="717.7241379309839" as="targetPoint" />
            <Array as="points" />
          </mxGeometry>
        </mxCell>
        <mxCell id="9ZnsXwRms6pgC_prqQTW-446" value="authentication" style="whiteSpace=wrap;html=1;fillColor=#A8DADC;strokeColor=#457B9D;fontColor=#1D3557;rounded=1;" parent="1" vertex="1">
          <mxGeometry x="592" y="-1066" width="80" height="34" as="geometry" />
        </mxCell>
        <mxCell id="Qo0M1kcbLLL2sJfZECa7-3" style="edgeStyle=orthogonalEdgeStyle;rounded=1;orthogonalLoop=1;jettySize=auto;html=1;entryX=0.083;entryY=0.063;entryDx=0;entryDy=0;entryPerimeter=0;startArrow=none;startFill=0;strokeColor=#6C8EBF;strokeWidth=2;" edge="1" parent="1" source="9ZnsXwRms6pgC_prqQTW-448">
          <mxGeometry relative="1" as="geometry">
            <mxPoint x="479.9680000000001" y="-949.976" as="targetPoint" />
            <Array as="points">
              <mxPoint x="540" y="-977" />
              <mxPoint x="540" y="-950" />
            </Array>
          </mxGeometry>
        </mxCell>
        <mxCell id="9ZnsXwRms6pgC_prqQTW-448" value="" style="rhombus;whiteSpace=wrap;html=1;fillColor=#A8DADC;strokeColor=#457B9D;fontColor=#1D3557;rounded=1;arcSize=50;" parent="1" vertex="1">
          <mxGeometry x="616" y="-985" width="16" height="16" as="geometry" />
        </mxCell>
        <mxCell id="9ZnsXwRms6pgC_prqQTW-449" value="" style="endArrow=classic;html=1;exitX=0.415;exitY=1.019;exitDx=0;exitDy=0;exitPerimeter=0;labelBackgroundColor=#F1FAEE;strokeColor=#457B9D;fontColor=#1D3557;rounded=1;entryX=0.5;entryY=0;entryDx=0;entryDy=0;" parent="1" source="9ZnsXwRms6pgC_prqQTW-446" target="9ZnsXwRms6pgC_prqQTW-448" edge="1">
          <mxGeometry width="50" height="50" relative="1" as="geometry">
            <mxPoint x="608" y="-1009" as="sourcePoint" />
            <mxPoint x="624" y="-1011" as="targetPoint" />
            <Array as="points" />
          </mxGeometry>
        </mxCell>
        <mxCell id="9ZnsXwRms6pgC_prqQTW-450" value="" style="endArrow=classic;html=1;strokeWidth=2;fontFamily=Times New Roman;fontSize=18;labelBackgroundColor=#F1FAEE;strokeColor=#457B9D;fontColor=#1D3557;rounded=1;exitX=0.5;exitY=1;exitDx=0;exitDy=0;" parent="1" source="9ZnsXwRms6pgC_prqQTW-448" edge="1">
          <mxGeometry width="50" height="50" relative="1" as="geometry">
            <mxPoint x="460" y="-841" as="sourcePoint" />
            <mxPoint x="624" y="-901" as="targetPoint" />
          </mxGeometry>
        </mxCell>
        <mxCell id="9ZnsXwRms6pgC_prqQTW-451" value="valid" style="text;html=1;align=center;verticalAlign=middle;resizable=0;points=[];autosize=1;strokeColor=none;fillColor=none;fontColor=#1D3557;rounded=1;" parent="1" vertex="1">
          <mxGeometry x="624" y="-945" width="48" height="32" as="geometry" />
        </mxCell>
        <mxCell id="9ZnsXwRms6pgC_prqQTW-452" value="invalid" style="text;html=1;align=center;verticalAlign=middle;resizable=0;points=[];autosize=1;strokeColor=none;fillColor=none;fontColor=#1D3557;rounded=1;" parent="1" vertex="1">
          <mxGeometry x="550" y="-1005" width="56" height="32" as="geometry" />
        </mxCell>
        <mxCell id="9ZnsXwRms6pgC_prqQTW-453" value="" style="edgeStyle=segmentEdgeStyle;endArrow=classic;html=1;entryX=0.436;entryY=0.044;entryDx=0;entryDy=0;entryPerimeter=0;labelBackgroundColor=#F1FAEE;strokeColor=#457B9D;fontColor=#1D3557;rounded=1;strokeWidth=2;startArrow=none;startFill=0;" parent="1" target="9ZnsXwRms6pgC_prqQTW-241" edge="1">
          <mxGeometry width="50" height="50" relative="1" as="geometry">
            <mxPoint x="410" y="-1081" as="sourcePoint" />
            <mxPoint x="168" y="-1073" as="targetPoint" />
            <Array as="points">
              <mxPoint x="212" y="-1081" />
            </Array>
          </mxGeometry>
        </mxCell>
        <mxCell id="9ZnsXwRms6pgC_prqQTW-457" value="" style="endArrow=classic;html=1;rounded=1;fillColor=#dae8fc;strokeColor=#6C8EBF;strokeWidth=2;exitX=0.082;exitY=-0.053;exitDx=0;exitDy=0;exitPerimeter=0;startArrow=none;startFill=0;endFill=1;entryX=0;entryY=0.5;entryDx=0;entryDy=0;" parent="1" target="9ZnsXwRms6pgC_prqQTW-446" edge="1">
          <mxGeometry width="50" height="50" relative="1" as="geometry">
            <mxPoint x="479.87200000000007" y="-955.544" as="sourcePoint" />
            <mxPoint x="590" y="-1060" as="targetPoint" />
            <Array as="points">
              <mxPoint x="520" y="-956" />
              <mxPoint x="520" y="-1049" />
            </Array>
          </mxGeometry>
        </mxCell>
        <mxCell id="9ZnsXwRms6pgC_prqQTW-468" value="&lt;b&gt;&lt;font style=&quot;font-size: 14px;&quot;&gt;Activity Diagram of Ecommerce Sysem&lt;/font&gt;&lt;/b&gt;" style="text;html=1;align=center;verticalAlign=middle;resizable=0;points=[];autosize=1;strokeColor=none;fillColor=none;" parent="1" vertex="1">
          <mxGeometry x="10" y="-1160" width="280" height="40" as="geometry" />
        </mxCell>
        <mxCell id="Qo0M1kcbLLL2sJfZECa7-4" value="correct mail &lt;br&gt;and passwordt" style="text;html=1;resizable=0;autosize=1;align=center;verticalAlign=middle;points=[];fillColor=none;strokeColor=none;fontColor=#1D3557;rounded=1;" vertex="1" parent="1">
          <mxGeometry x="480" y="-1110" width="96" height="48" as="geometry" />
        </mxCell>
      </root>
    </mxGraphModel>
  </diagram>
</mxfile>
